# Blender v2.81 (sub 16) OBJ File: 'vrworld.blend'
# www.blender.org
mtllib vrworld.mtl
o Cylinder
v -0.000000 -1.070382 2.832580
v -0.000000 3.871326 2.832580
v 0.532504 -1.070382 2.778152
v 0.532504 3.871326 2.778152
v 1.044545 -1.070382 2.616962
v 1.044545 3.871326 2.616962
v 1.516444 -1.070382 2.355204
v 1.516444 3.871326 2.355204
v 1.930067 -1.070382 2.002936
v 1.930067 3.871326 2.002936
v 2.269519 -1.070382 1.573696
v 2.269519 3.871326 1.573696
v 2.521754 -1.070382 1.083980
v 2.521754 3.871326 1.083980
v 2.677080 -1.070382 0.552608
v 2.677080 3.871326 0.552608
v 2.729527 -1.070382 -0.000001
v 2.729527 3.871326 -0.000001
v 2.677080 -1.070382 -0.552610
v 2.677080 3.871326 -0.552610
v 2.521755 -1.070382 -1.083983
v 2.521755 3.871326 -1.083983
v 2.269519 -1.070382 -1.573699
v 2.269519 3.871326 -1.573699
v 1.930067 -1.070382 -2.002939
v 1.930067 3.871326 -2.002939
v 1.516444 -1.070382 -2.355207
v 1.516444 3.871326 -2.355207
v 1.044544 -1.070382 -2.616966
v 1.044544 3.871326 -2.616966
v 0.532504 -1.070382 -2.778155
v 0.532504 3.871326 -2.778155
v -0.000001 -1.070382 -2.832583
v -0.000001 3.871326 -2.832583
v -0.532506 -1.070382 -2.778156
v -0.532506 3.871326 -2.778156
v -1.044546 -1.070382 -2.616965
v -1.044546 3.871326 -2.616965
v -1.516446 -1.070382 -2.355206
v -1.516446 3.871326 -2.355206
v -1.930069 -1.070382 -2.002938
v -1.930069 3.871326 -2.002938
v -2.269520 -1.070382 -1.573697
v -2.269520 3.871326 -1.573697
v -2.521756 -1.070382 -1.083981
v -2.521756 3.871326 -1.083981
v -2.677081 -1.070382 -0.552608
v -2.677081 3.871326 -0.552608
v -2.729528 -1.070382 0.000001
v -2.729528 3.871326 0.000001
v -2.677080 -1.070382 0.552611
v -2.677080 3.871326 0.552611
v -2.521754 -1.070382 1.083983
v -2.521754 3.871326 1.083983
v -2.269517 -1.070382 1.573699
v -2.269517 3.871326 1.573699
v -1.930065 -1.070382 2.002938
v -1.930065 3.871326 2.002938
v -1.516441 -1.070382 2.355206
v -1.516441 3.871326 2.355206
v -1.044541 -1.070382 2.616964
v -1.044541 3.871326 2.616964
v -0.532500 -1.070382 2.778153
v -0.532500 3.871326 2.778153
vt 0.987120 0.253140
vt 0.987120 0.769061
vt 0.956675 0.769061
vt 0.956675 0.253140
vt 0.926230 0.769061
vt 0.926230 0.253140
vt 0.895785 0.769061
vt 0.895785 0.253140
vt 0.865340 0.769061
vt 0.865340 0.253140
vt 0.834895 0.769061
vt 0.834895 0.253140
vt 0.804450 0.769061
vt 0.804450 0.253140
vt 0.774005 0.769061
vt 0.774005 0.253140
vt 0.743560 0.769061
vt 0.743560 0.253140
vt 0.713115 0.769061
vt 0.713115 0.253140
vt 0.682670 0.769061
vt 0.682670 0.253140
vt 0.652225 0.769061
vt 0.652225 0.253140
vt 0.621780 0.769061
vt 0.621780 0.253140
vt 0.591335 0.769061
vt 0.591335 0.253140
vt 0.560890 0.769061
vt 0.560890 0.253140
vt 0.530445 0.769061
vt 0.530445 0.253140
vt 0.500000 0.769061
vt 0.500000 0.253140
vt 0.469555 0.769061
vt 0.469555 0.253140
vt 0.439110 0.769061
vt 0.439110 0.253140
vt 0.408665 0.769061
vt 0.408665 0.253140
vt 0.378220 0.769061
vt 0.378220 0.253140
vt 0.347775 0.769061
vt 0.347775 0.253140
vt 0.317330 0.769061
vt 0.317330 0.253140
vt 0.286885 0.769061
vt 0.286885 0.253140
vt 0.256440 0.769061
vt 0.256440 0.253140
vt 0.225995 0.769061
vt 0.225995 0.253140
vt 0.195550 0.769061
vt 0.195550 0.253140
vt 0.165105 0.769061
vt 0.165105 0.253140
vt 0.134660 0.769061
vt 0.134660 0.253140
vt 0.104215 0.769061
vt 0.104215 0.253140
vt 0.073770 0.769061
vt 0.073770 0.253140
vt 0.296822 0.485388
vt 0.250000 0.490000
vt 0.203179 0.485389
vt 0.158156 0.471731
vt 0.116663 0.449553
vt 0.080295 0.419706
vt 0.050447 0.383337
vt 0.028269 0.341844
vt 0.014612 0.296822
vt 0.010000 0.250000
vt 0.014611 0.203179
vt 0.028269 0.158156
vt 0.050447 0.116663
vt 0.080294 0.080294
vt 0.116663 0.050447
vt 0.158156 0.028269
vt 0.203178 0.014612
vt 0.250000 0.010000
vt 0.296822 0.014612
vt 0.341844 0.028269
vt 0.383337 0.050447
vt 0.419706 0.080294
vt 0.449553 0.116663
vt 0.471731 0.158156
vt 0.485388 0.203178
vt 0.490000 0.250000
vt 0.485388 0.296822
vt 0.471731 0.341844
vt 0.449553 0.383337
vt 0.419706 0.419706
vt 0.383337 0.449553
vt 0.341844 0.471731
vt 0.043325 0.769061
vt 0.043325 0.253140
vt 0.012880 0.769061
vt 0.012880 0.253140
vt 0.750000 0.490000
vt 0.796822 0.485388
vt 0.841844 0.471731
vt 0.883337 0.449553
vt 0.919706 0.419706
vt 0.949553 0.383337
vt 0.971731 0.341844
vt 0.985388 0.296822
vt 0.990000 0.250000
vt 0.985388 0.203178
vt 0.971731 0.158156
vt 0.949553 0.116663
vt 0.919706 0.080294
vt 0.883337 0.050447
vt 0.841844 0.028269
vt 0.796822 0.014612
vt 0.750000 0.010000
vt 0.703178 0.014612
vt 0.658156 0.028269
vt 0.616663 0.050447
vt 0.580294 0.080294
vt 0.550447 0.116663
vt 0.528269 0.158156
vt 0.514611 0.203179
vt 0.510000 0.250000
vt 0.514612 0.296822
vt 0.528269 0.341844
vt 0.550447 0.383337
vt 0.580295 0.419706
vt 0.616663 0.449553
vt 0.658156 0.471731
vt 0.703179 0.485389
vn -0.1017 0.0000 -0.9948
vn -0.3003 0.0000 -0.9539
vn -0.4851 0.0000 -0.8745
vn -0.6484 0.0000 -0.7613
vn -0.7844 0.0000 -0.6203
vn -0.8890 0.0000 -0.4579
vn -0.9598 0.0000 -0.2806
vn -0.9955 0.0000 -0.0945
vn -0.9955 0.0000 0.0945
vn -0.9598 0.0000 0.2806
vn -0.8890 0.0000 0.4579
vn -0.7844 0.0000 0.6203
vn -0.6484 0.0000 0.7613
vn -0.4851 0.0000 0.8745
vn -0.3003 0.0000 0.9539
vn -0.1017 0.0000 0.9948
vn 0.1017 0.0000 0.9948
vn 0.3003 0.0000 0.9539
vn 0.4851 0.0000 0.8745
vn 0.6484 0.0000 0.7613
vn 0.7844 0.0000 0.6203
vn 0.8890 0.0000 0.4579
vn 0.9598 0.0000 0.2806
vn 0.9955 0.0000 0.0945
vn 0.9955 0.0000 -0.0945
vn 0.9598 0.0000 -0.2806
vn 0.8890 0.0000 -0.4579
vn 0.7844 0.0000 -0.6203
vn 0.6484 0.0000 -0.7613
vn 0.4851 0.0000 -0.8745
vn 0.0000 -1.0000 -0.0000
vn 0.3003 0.0000 -0.9539
vn 0.1017 0.0000 -0.9948
vn 0.0000 1.0000 0.0000
usemtl (null)
s off
f 1/1/1 2/2/1 4/3/1 3/4/1
f 3/4/2 4/3/2 6/5/2 5/6/2
f 5/6/3 6/5/3 8/7/3 7/8/3
f 7/8/4 8/7/4 10/9/4 9/10/4
f 9/10/5 10/9/5 12/11/5 11/12/5
f 11/12/6 12/11/6 14/13/6 13/14/6
f 13/14/7 14/13/7 16/15/7 15/16/7
f 15/16/8 16/15/8 18/17/8 17/18/8
f 17/18/9 18/17/9 20/19/9 19/20/9
f 19/20/10 20/19/10 22/21/10 21/22/10
f 21/22/11 22/21/11 24/23/11 23/24/11
f 23/24/12 24/23/12 26/25/12 25/26/12
f 25/26/13 26/25/13 28/27/13 27/28/13
f 27/28/14 28/27/14 30/29/14 29/30/14
f 29/30/15 30/29/15 32/31/15 31/32/15
f 31/32/16 32/31/16 34/33/16 33/34/16
f 33/34/17 34/33/17 36/35/17 35/36/17
f 35/36/18 36/35/18 38/37/18 37/38/18
f 37/38/19 38/37/19 40/39/19 39/40/19
f 39/40/20 40/39/20 42/41/20 41/42/20
f 41/42/21 42/41/21 44/43/21 43/44/21
f 43/44/22 44/43/22 46/45/22 45/46/22
f 45/46/23 46/45/23 48/47/23 47/48/23
f 47/48/24 48/47/24 50/49/24 49/50/24
f 49/50/25 50/49/25 52/51/25 51/52/25
f 51/52/26 52/51/26 54/53/26 53/54/26
f 53/54/27 54/53/27 56/55/27 55/56/27
f 55/56/28 56/55/28 58/57/28 57/58/28
f 57/58/29 58/57/29 60/59/29 59/60/29
f 59/60/30 60/59/30 62/61/30 61/62/30
f 4/63/31 2/64/31 64/65/31 62/66/31 60/67/31 58/68/31 56/69/31 54/70/31 52/71/31 50/72/31 48/73/31 46/74/31 44/75/31 42/76/31 40/77/31 38/78/31 36/79/31 34/80/31 32/81/31 30/82/31 28/83/31 26/84/31 24/85/31 22/86/31 20/87/31 18/88/31 16/89/31 14/90/31 12/91/31 10/92/31 8/93/31 6/94/31
f 61/62/32 62/61/32 64/95/32 63/96/32
f 63/96/33 64/95/33 2/97/33 1/98/33
f 1/99/34 3/100/34 5/101/34 7/102/34 9/103/34 11/104/34 13/105/34 15/106/34 17/107/34 19/108/34 21/109/34 23/110/34 25/111/34 27/112/34 29/113/34 31/114/34 33/115/34 35/116/34 37/117/34 39/118/34 41/119/34 43/120/34 45/121/34 47/122/34 49/123/34 51/124/34 53/125/34 55/126/34 57/127/34 59/128/34 61/129/34 63/130/34
